<?xml version="1.0" encoding="utf-8"?>
<!-- Generator: Adobe Illustrator 16.0.3, SVG Export Plug-In . SVG Version: 6.00 Build 0)  -->
<!DOCTYPE svg PUBLIC "-//W3C//DTD SVG 1.1//EN" "http://www.w3.org/Graphics/SVG/1.1/DTD/svg11.dtd">
<svg version="1.1" id="Слой_1" xmlns:sketch="http://www.bohemiancoding.com/sketch/ns"
	 xmlns="http://www.w3.org/2000/svg" xmlns:xlink="http://www.w3.org/1999/xlink" x="0px" y="0px" width="24px" height="20px"
	 viewBox="0 0 24 20" enable-background="new 0 0 24 20" xml:space="preserve">
<title></title>
<desc></desc>
<g id="Page-1">
	<g id="Core" transform="translate(-42.000000, -338.000000)">
		<g id="markunread" transform="translate(42.000000, 338.000000)">
			<path id="Shape" fill="#FFFFFF" d="M22,4l2-2l-2-2l-2,2l-2-2l-2,2l-2-2l-2,2l-2-2L8,2L6,0L4,2L2,0L0,2l2,2L0,6l2,2l-2,2l2,2l-2,2
				l2,2l-2,2l2,2l2-2l2,2l2-2l2,2l2-2l2,2l2-2l2,2l2-2l2,2l2-2l-2-2l2-2l-2-2l2-2l-2-2l2-2L22,4L22,4z M20,6l-8,5L4,6V4l8,5l8-5V6
				L20,6z"/>
		</g>
	</g>
</g>
</svg>
